<svg width="40" height="40" viewBox="0 0 40 40" fill="none" xmlns="http://www.w3.org/2000/svg">
<g id="vuesax/bold/facebook">
<g id="facebook">
<path id="Vector" d="M36.6667 26.9833C36.6667 33.0499 33.05 36.6666 26.9834 36.6666H25C24.0834 36.6666 23.3334 35.9166 23.3334 34.9999V25.3833C23.3334 24.9333 23.7 24.5499 24.15 24.5499L27.0834 24.4999C27.3167 24.4833 27.5167 24.3166 27.5667 24.0833L28.1501 20.8999C28.2001 20.5999 27.9667 20.3166 27.65 20.3166L24.1 20.3666C23.6334 20.3666 23.2667 19.9999 23.2501 19.5499L23.1834 15.4666C23.1834 15.1999 23.4 14.9666 23.6834 14.9666L27.6834 14.8999C27.9667 14.8999 28.1834 14.6833 28.1834 14.3999L28.1167 10.3999C28.1167 10.1166 27.9001 9.89992 27.6167 9.89992L23.1167 9.9666C20.35 10.0166 18.1501 12.2833 18.2001 15.0499L18.2834 19.6333C18.3 20.0999 17.9334 20.4666 17.4667 20.4833L15.4667 20.5166C15.1834 20.5166 14.9667 20.7332 14.9667 21.0166L15.0167 24.1833C15.0167 24.4666 15.2334 24.6832 15.5167 24.6832L17.5167 24.6499C17.9834 24.6499 18.35 25.0166 18.3667 25.4666L18.5167 34.9666C18.5333 35.8999 17.7833 36.6666 16.85 36.6666H13.0167C6.95004 36.6666 3.33337 33.0499 3.33337 26.9666V13.0166C3.33337 6.94991 6.95004 3.33325 13.0167 3.33325H26.9834C33.05 3.33325 36.6667 6.94991 36.6667 13.0166V26.9833Z" fill="white"/>
</g>
</g>
</svg>
