<svg width="40" height="40" viewBox="0 0 40 40" fill="none" xmlns="http://www.w3.org/2000/svg">
<g id="vuesax/bold/google">
<g id="google">
<path id="Vector" d="M36.2334 18.4499C36.1501 17.5999 35.4334 16.9666 34.5834 16.9666H22.0001C21.0834 16.9666 20.3334 17.7166 20.3334 18.6332V21.4833C20.3334 22.3999 21.0834 23.1499 22.0001 23.1499H29.5168C29.3334 24.6833 28.3334 26.9999 26.1167 28.5499C24.7001 29.5333 22.8167 30.2166 20.3334 30.2166C20.2167 30.2166 20.1168 30.2166 20.0001 30.1999C15.7501 30.0666 12.1501 27.2166 10.8501 23.2999C10.5001 22.2499 10.3001 21.1499 10.3001 19.9999C10.3001 18.8499 10.5001 17.7332 10.8334 16.6999C10.9334 16.3999 11.0501 16.0999 11.1834 15.7999C12.7168 12.3499 16.0668 9.91659 20.0001 9.79993C20.1001 9.78326 20.2167 9.78324 20.3334 9.78324C22.7167 9.78324 24.5001 10.5666 25.7501 11.4332C26.4001 11.8832 27.2667 11.7832 27.8334 11.2332L30.1501 8.96659C30.8834 8.24993 30.8167 7.03323 29.9834 6.43323C27.3334 4.48323 24.1001 3.33325 20.3334 3.33325C20.2167 3.33325 20.1168 3.33327 20.0001 3.34993C13.6168 3.4666 8.13341 7.1666 5.45008 12.5166C4.31675 14.7833 3.66675 17.3166 3.66675 19.9999C3.66675 22.6833 4.31675 25.2166 5.45008 27.4832H5.46675C8.15008 32.8332 13.6334 36.5332 20.0001 36.6499C20.1168 36.6666 20.2167 36.6666 20.3334 36.6666C24.8334 36.6666 28.6168 35.1832 31.3668 32.6332C34.5168 29.7166 36.3334 25.4499 36.3334 20.3666C36.3334 19.6499 36.3001 19.0333 36.2334 18.4499Z" fill="white"/>
</g>
</g>
</svg>
