<svg width="38" height="41" viewBox="0 0 38 41" fill="none" xmlns="http://www.w3.org/2000/svg">
<g id="vuesax/bold/headphone">
<g id="headphone">
<path id="Vector" d="M2.58327 31.6547C1.89994 31.6547 1.33327 31.088 1.33327 30.4047V20.9047C1.24994 16.388 2.93327 12.1214 6.06661 8.92137C9.19994 5.73804 13.3999 3.98804 17.9166 3.98804C27.1499 3.98804 34.6666 11.5047 34.6666 20.738V30.238C34.6666 30.9214 34.0999 31.488 33.4166 31.488C32.7333 31.488 32.1666 30.9214 32.1666 30.238V20.738C32.1666 12.888 25.7833 6.48804 17.9166 6.48804C14.0666 6.48804 10.4999 7.97137 7.84994 10.6714C5.18327 13.388 3.76661 17.0047 3.83327 20.8714V30.388C3.83327 31.088 3.28327 31.6547 2.58327 31.6547Z" fill="#FF5E00"/>
<path id="Vector_2" d="M7.89992 21.3213H7.68325C4.18325 21.3213 1.33325 24.1713 1.33325 27.6713V30.8046C1.33325 34.3046 4.18325 37.1546 7.68325 37.1546H7.89992C11.3999 37.1546 14.2499 34.3046 14.2499 30.8046V27.6713C14.2499 24.1713 11.3999 21.3213 7.89992 21.3213Z" fill="#FF5E00"/>
<path id="Vector_3" d="M28.3167 21.3213H28.1C24.6 21.3213 21.75 24.1713 21.75 27.6713V30.8046C21.75 34.3046 24.6 37.1546 28.1 37.1546H28.3167C31.8167 37.1546 34.6667 34.3046 34.6667 30.8046V27.6713C34.6667 24.1713 31.8167 21.3213 28.3167 21.3213Z" fill="#FF5E00"/>
</g>
</g>
</svg>
