<svg width="41" height="41" viewBox="0 0 41 41" fill="none" xmlns="http://www.w3.org/2000/svg">
<g id="vuesax/outline/shopping-cart">
<g id="shopping-cart">
<path id="Vector" d="M30.8167 30.0833H13.0667C11.4167 30.0833 9.83336 29.3834 8.7167 28.1667C7.60003 26.95 7.03337 25.3167 7.16671 23.6667L8.55004 7.06668C8.60004 6.55001 8.4167 6.05002 8.0667 5.66669C7.7167 5.28335 7.23337 5.08334 6.7167 5.08334H3.83337C3.15004 5.08334 2.58337 4.51668 2.58337 3.83334C2.58337 3.15001 3.15004 2.58334 3.83337 2.58334H6.73338C7.95005 2.58334 9.10003 3.1 9.9167 3.98334C10.3667 4.48334 10.7 5.06668 10.8834 5.71668H31.7C33.3834 5.71668 34.9334 6.38334 36.0667 7.58334C37.1834 8.80001 37.75 10.3833 37.6167 12.0667L36.7167 24.5667C36.5334 27.6167 33.8667 30.0833 30.8167 30.0833ZM10.9667 8.2L9.66671 23.8667C9.58337 24.8333 9.90004 25.75 10.55 26.4667C11.2 27.1833 12.1 27.5667 13.0667 27.5667H30.8167C32.55 27.5667 34.1167 26.1 34.25 24.3667L35.15 11.8667C35.2167 10.8834 34.9 9.95003 34.25 9.26669C33.6 8.56669 32.7 8.18332 31.7167 8.18332H10.9667V8.2Z" fill="black"/>
<path id="Vector_2" d="M27.5833 38.4167C25.75 38.4167 24.25 36.9167 24.25 35.0833C24.25 33.25 25.75 31.75 27.5833 31.75C29.4167 31.75 30.9167 33.25 30.9167 35.0833C30.9167 36.9167 29.4167 38.4167 27.5833 38.4167ZM27.5833 34.25C27.1167 34.25 26.75 34.6167 26.75 35.0833C26.75 35.55 27.1167 35.9167 27.5833 35.9167C28.05 35.9167 28.4167 35.55 28.4167 35.0833C28.4167 34.6167 28.05 34.25 27.5833 34.25Z" fill="black"/>
<path id="Vector_3" d="M14.25 38.4167C12.4166 38.4167 10.9166 36.9167 10.9166 35.0833C10.9166 33.25 12.4166 31.75 14.25 31.75C16.0833 31.75 17.5833 33.25 17.5833 35.0833C17.5833 36.9167 16.0833 38.4167 14.25 38.4167ZM14.25 34.25C13.7833 34.25 13.4166 34.6167 13.4166 35.0833C13.4166 35.55 13.7833 35.9167 14.25 35.9167C14.7166 35.9167 15.0833 35.55 15.0833 35.0833C15.0833 34.6167 14.7166 34.25 14.25 34.25Z" fill="black"/>
<path id="Vector_4" d="M35.5 15.0833H15.5C14.8167 15.0833 14.25 14.5167 14.25 13.8333C14.25 13.15 14.8167 12.5833 15.5 12.5833H35.5C36.1833 12.5833 36.75 13.15 36.75 13.8333C36.75 14.5167 36.1833 15.0833 35.5 15.0833Z" fill="black"/>
</g>
</g>
</svg>
