<svg width="40" height="40" viewBox="0 0 40 40" fill="none" xmlns="http://www.w3.org/2000/svg">
<g id="vuesax/outline/arrow-square-left">
<g id="arrow-square-left">
<path id="Vector" d="M24.9999 37.9167H14.9999C5.94992 37.9167 2.08325 34.05 2.08325 25V15C2.08325 5.95001 5.94992 2.08334 14.9999 2.08334H24.9999C34.0499 2.08334 37.9166 5.95001 37.9166 15V25C37.9166 34.05 34.0499 37.9167 24.9999 37.9167ZM14.9999 4.58334C7.31659 4.58334 4.58325 7.31668 4.58325 15V25C4.58325 32.6833 7.31659 35.4167 14.9999 35.4167H24.9999C32.6833 35.4167 35.4166 32.6833 35.4166 25V15C35.4166 7.31668 32.6833 4.58334 24.9999 4.58334H14.9999Z" fill="black"/>
<path id="Vector_2" d="M22.1001 27.1333C21.7834 27.1333 21.4668 27.0167 21.2168 26.7667L15.3334 20.8833C14.8501 20.4 14.8501 19.6 15.3334 19.1167L21.2168 13.2333C21.7001 12.75 22.5001 12.75 22.9834 13.2333C23.4668 13.7167 23.4668 14.5167 22.9834 15L17.9834 20L22.9834 25C23.4668 25.4833 23.4668 26.2833 22.9834 26.7667C22.7501 27.0167 22.4334 27.1333 22.1001 27.1333Z" fill="black"/>
</g>
</g>
</svg>
