<svg width="40" height="40" viewBox="0 0 40 40" fill="none" xmlns="http://www.w3.org/2000/svg">
<g id="vuesax/outline/arrow-right">
<g id="arrow-right">
<path id="Vector" d="M24.9999 37.9167H14.9999C5.94992 37.9167 2.08325 34.05 2.08325 25V15C2.08325 5.95001 5.94992 2.08334 14.9999 2.08334H24.9999C34.0499 2.08334 37.9166 5.95001 37.9166 15V25C37.9166 34.05 34.0499 37.9167 24.9999 37.9167ZM14.9999 4.58334C7.31659 4.58334 4.58325 7.31668 4.58325 15V25C4.58325 32.6833 7.31659 35.4167 14.9999 35.4167H24.9999C32.6833 35.4167 35.4166 32.6833 35.4166 25V15C35.4166 7.31668 32.6833 4.58334 24.9999 4.58334H14.9999Z" fill="black"/>
<path id="Vector_2" d="M17.8999 27.1333C17.5832 27.1333 17.2666 27.0167 17.0166 26.7667C16.5332 26.2833 16.5332 25.4833 17.0166 25L22.0166 20L17.0166 15C16.5332 14.5167 16.5332 13.7167 17.0166 13.2333C17.4999 12.75 18.2999 12.75 18.7832 13.2333L24.6666 19.1167C25.1499 19.6 25.1499 20.4 24.6666 20.8833L18.7832 26.7667C18.5332 27.0167 18.2166 27.1333 17.8999 27.1333Z" fill="black"/>
</g>
</g>
</svg>
