<svg width="40" height="40" viewBox="0 0 40 40" fill="none" xmlns="http://www.w3.org/2000/svg">
<g id="vuesax/bold/instagram">
<g id="instagram">
<path id="Vector" d="M26.9834 3.33325H13.0167C6.95004 3.33325 3.33337 6.94992 3.33337 13.0166V26.9666C3.33337 33.0499 6.95004 36.6666 13.0167 36.6666H26.9667C33.0334 36.6666 36.65 33.0499 36.65 26.9833V13.0166C36.6667 6.94992 33.05 3.33325 26.9834 3.33325ZM20 26.4666C16.4334 26.4666 13.5334 23.5666 13.5334 19.9999C13.5334 16.4333 16.4334 13.5333 20 13.5333C23.5667 13.5333 26.4667 16.4333 26.4667 19.9999C26.4667 23.5666 23.5667 26.4666 20 26.4666ZM29.8667 11.4666C29.7834 11.6666 29.6667 11.8499 29.5167 12.0166C29.35 12.1666 29.1667 12.2833 28.9667 12.3666C28.7667 12.4499 28.55 12.4999 28.3334 12.4999C27.8834 12.4999 27.4667 12.3333 27.15 12.0166C27 11.8499 26.8834 11.6666 26.8 11.4666C26.7167 11.2666 26.6667 11.0499 26.6667 10.8333C26.6667 10.6166 26.7167 10.3999 26.8 10.1999C26.8834 9.98325 27 9.81659 27.15 9.64992C27.5334 9.26659 28.1167 9.08325 28.65 9.19992C28.7667 9.21659 28.8667 9.24992 28.9667 9.29992C29.0667 9.33325 29.1667 9.38325 29.2667 9.44992C29.35 9.49992 29.4334 9.58325 29.5167 9.64992C29.6667 9.81659 29.7834 9.98325 29.8667 10.1999C29.95 10.3999 30 10.6166 30 10.8333C30 11.0499 29.95 11.2666 29.8667 11.4666Z" fill="white"/>
</g>
</g>
</svg>
