<svg width="38" height="41" viewBox="0 0 38 41" fill="none" xmlns="http://www.w3.org/2000/svg">
<g id="vuesax/bold/location">
<path id="Vector" d="M32.3666 14.6547C30.6166 6.9547 23.8999 3.48804 17.9999 3.48804C17.9999 3.48804 17.9999 3.48804 17.9832 3.48804C12.0999 3.48804 5.36658 6.93804 3.61658 14.638C1.66658 23.238 6.93325 30.5214 11.6999 35.1047C13.4666 36.8047 15.7332 37.6547 17.9999 37.6547C20.2666 37.6547 22.5332 36.8047 24.2832 35.1047C29.0499 30.5214 34.3166 23.2547 32.3666 14.6547ZM17.9999 23.0047C15.0999 23.0047 12.7499 20.6547 12.7499 17.7547C12.7499 14.8547 15.0999 12.5047 17.9999 12.5047C20.8999 12.5047 23.2499 14.8547 23.2499 17.7547C23.2499 20.6547 20.8999 23.0047 17.9999 23.0047Z" fill="#FF5E00"/>
</g>
</svg>
