<svg width="40" height="41" viewBox="0 0 40 41" fill="none" xmlns="http://www.w3.org/2000/svg">
<g id="vuesax/bold/sms">
<g id="sms">
<path id="Vector" d="M28.3335 6.33333H11.6668C6.66683 6.33333 3.3335 8.83333 3.3335 14.6667V26.3333C3.3335 32.1667 6.66683 34.6667 11.6668 34.6667H28.3335C33.3335 34.6667 36.6668 32.1667 36.6668 26.3333V14.6667C36.6668 8.83333 33.3335 6.33333 28.3335 6.33333ZM29.1168 16.4833L23.9002 20.65C22.8002 21.5333 21.4002 21.9667 20.0002 21.9667C18.6002 21.9667 17.1835 21.5333 16.1002 20.65L10.8835 16.4833C10.3502 16.05 10.2668 15.25 10.6835 14.7167C11.1168 14.1833 11.9002 14.0833 12.4335 14.5167L17.6502 18.6833C18.9168 19.7 21.0668 19.7 22.3335 18.6833L27.5502 14.5167C28.0835 14.0833 28.8835 14.1667 29.3002 14.7167C29.7335 15.25 29.6502 16.05 29.1168 16.4833Z" fill="#FF5E00"/>
</g>
</g>
</svg>
