<svg width="25" height="24" viewBox="0 0 25 24" fill="none" xmlns="http://www.w3.org/2000/svg">
<g id="vuesax/linear/star">
<g id="star">
<path id="Vector" d="M14.2299 3.51001L15.9899 7.03001C16.2299 7.52001 16.8699 7.99001 17.4099 8.08001L20.5999 8.61001C22.6399 8.95001 23.1199 10.43 21.6499 11.89L19.1699 14.37C18.7499 14.79 18.5199 15.6 18.6499 16.18L19.3599 19.25C19.9199 21.68 18.6299 22.62 16.4799 21.35L13.4899 19.58C12.9499 19.26 12.0599 19.26 11.5099 19.58L8.51991 21.35C6.37991 22.62 5.07991 21.67 5.63991 19.25L6.34991 16.18C6.47991 15.6 6.24991 14.79 5.82991 14.37L3.34991 11.89C1.88991 10.43 2.35991 8.95001 4.39991 8.61001L7.58991 8.08001C8.11991 7.99001 8.75991 7.52001 8.99991 7.03001L10.7599 3.51001C11.7199 1.60001 13.2799 1.60001 14.2299 3.51001Z" fill="#FFC700"/>
</g>
</g>
</svg>
